# xmcd CD database file
#
# Track frame offsets:
#	150
#	45042
#	101815
#
# Disc length: 1964 seconds
#
# Revision: 0
# Processed by: cddbd v1.5.2PL0 Copyright (c) Steve Scherf et al.
# Submitted via: CDex 1.70beta2
#
DISCID=1807aa03
DTITLE=Keith Tippett Tapestry Orchestra - Live at Le Mans [CD2)
DYEAR=1998
DGENRE=Jazz
TTITLE0=Fifth Thread
TTITLE1=Sixth Thread
TTITLE2=Seventh Thread
EXTD=YEAR: 1998
EXTT0=
EXTT1=
EXTT2=
PLAYORDER=
